<svg width="25" height="27" viewBox="0 0 25 27" fill="none" xmlns="http://www.w3.org/2000/svg">
<path d="M12.8892 14.8309C12.5889 15.1313 12.1021 15.1313 11.8017 14.8309L8.30694 11.3361C8.16275 11.1919 8.08164 10.9963 8.08164 10.7924C8.08164 10.5883 8.16275 10.3928 8.30694 10.2485L8.92818 9.62741L7.10351 7.80273L5.60868 9.29756C5.1056 9.80064 5.1058 10.6192 5.60868 11.1222L12.0156 17.5295C12.2577 17.7717 12.5817 17.9048 12.928 17.9048C13.2743 17.9048 13.5983 17.7715 13.8404 17.5293L15.3353 16.0347L13.5106 14.2098L12.8892 14.8309Z" fill="white"/>
<path d="M24.019 9.26497C24.019 6.79942 23.0529 4.47547 21.2981 2.72089C19.5435 0.966311 17.2196 0 14.7542 0H9.26456C6.79942 0 4.47527 0.966311 2.72089 2.72069C0.966311 4.47527 0 6.79942 0 9.26476V13.5798C0 15.489 0.58239 17.3257 1.68428 18.8912C2.6564 20.2723 3.96378 21.351 5.48804 22.0351V24.5136C5.48804 25.7952 6.20562 26.2498 6.82005 26.25C7.25904 26.25 7.69824 26.0333 8.12562 25.6061L10.8868 22.8446H14.7544C17.2198 22.8446 19.5437 21.8783 21.2983 20.1237C23.0529 18.3691 24.0192 16.0452 24.0192 13.5798L24.019 9.26497ZM16.967 16.5783L14.9282 18.6168C14.3955 19.1496 13.6854 19.4426 12.9283 19.4426C12.1713 19.4426 11.4611 19.1494 10.9284 18.6168L4.52133 12.2096C3.41884 11.1067 3.41884 9.31243 4.52133 8.20973L6.5601 6.17117C6.70429 6.02677 6.89976 5.94586 7.10383 5.94586C7.30771 5.94586 7.50338 6.02677 7.64757 6.17117L10.5599 9.08352C10.7041 9.22771 10.785 9.42338 10.785 9.62726C10.785 9.83113 10.7041 10.0268 10.5597 10.171L9.93868 10.792L12.3459 13.1993L12.9672 12.5781C13.2676 12.2779 13.7545 12.2779 14.0547 12.5783L16.967 15.4906C17.1114 15.6348 17.1923 15.8305 17.1923 16.0343C17.1923 16.2384 17.1114 16.4341 16.967 16.5783ZM11.4271 7.46593C11.4271 7.04135 11.7714 6.69688 12.1961 6.69688C14.8608 6.69688 17.0287 8.86462 17.0287 11.529C17.0287 11.9538 16.6844 12.2981 16.2597 12.2981C15.8351 12.2981 15.4906 11.9538 15.4906 11.529C15.4906 9.71277 14.0128 8.23497 12.1961 8.23497C11.7714 8.23497 11.4271 7.8907 11.4271 7.46593ZM19.5543 12.2985C19.1295 12.2985 18.7853 11.954 18.7853 11.5294C18.7855 9.76925 18.0999 8.1146 16.8555 6.86992C15.6108 5.62543 13.9561 4.9399 12.1959 4.9399C11.7714 4.9399 11.4269 4.59563 11.4269 4.17086C11.4269 3.74628 11.7714 3.40181 12.1959 3.40181C14.3669 3.40181 16.4079 4.24736 17.9429 5.78244C19.4782 7.31752 20.3236 9.35849 20.3234 11.5294C20.3234 11.954 19.9791 12.2985 19.5543 12.2985Z" fill="white"/>
</svg>
