<svg width="26" height="26" viewBox="0 0 26 26" fill="none" xmlns="http://www.w3.org/2000/svg">
<path d="M13.3514 0.141113H13.3452C6.423 0.141113 0.793945 5.77174 0.793945 12.6955C0.793945 15.4417 1.67903 17.9871 3.18398 20.0539L1.61939 24.7178L6.44497 23.1752C8.43013 24.4903 10.7982 25.2498 13.3514 25.2498C20.2736 25.2498 25.9026 19.6176 25.9026 12.6955C25.9026 5.77331 20.2736 0.141113 13.3514 0.141113ZM20.6565 17.8694C20.3536 18.7247 19.1515 19.434 18.1927 19.6412C17.5367 19.7808 16.6799 19.8922 13.7955 18.6964C10.1061 17.1679 7.73022 13.4189 7.54505 13.1757C7.36772 12.9324 6.05422 11.1905 6.05422 9.38896C6.05422 7.58741 6.96912 6.71018 7.3379 6.33355C7.64077 6.02439 8.14138 5.88316 8.62158 5.88316C8.77694 5.88316 8.91661 5.891 9.04215 5.89728C9.41094 5.91297 9.59611 5.93495 9.83935 6.51715C10.1422 7.24687 10.8798 9.04842 10.9677 9.2336C11.0571 9.41878 11.1466 9.66986 11.021 9.9131C10.9033 10.1642 10.7998 10.2756 10.6146 10.489C10.4294 10.7025 10.2536 10.8657 10.0685 11.0948C9.89899 11.2941 9.70753 11.5075 9.92096 11.8763C10.1344 12.2372 10.8719 13.4409 11.9579 14.4076C13.3593 15.6551 14.4954 16.0538 14.9019 16.2232C15.2048 16.3488 15.5657 16.319 15.787 16.0836C16.0679 15.7807 16.4147 15.2785 16.7678 14.7842C17.0189 14.4295 17.3359 14.3856 17.6686 14.5111C18.0075 14.6288 19.8012 15.5155 20.17 15.6991C20.5388 15.8843 20.782 15.9721 20.8715 16.1275C20.9594 16.2829 20.9594 17.0126 20.6565 17.8694Z" fill="white"/>
</svg>
